PathFileType	4	(X/Y/Z)	D:\TRACE\v60_Jaco2_6-2-23\JustArmDRS_Motion3_5-v60.trc
DataRate	CameraRate	NumFrames	NumMarkers	Units	OrigDataRate	OrigDataStartFrame	OrigNumFrames
100.00	100.00	      13	9	mm	100.00	2626	      7000
Frame#	Time	front left toe			Front right toe			aft left toe			aft right toe			Arm			FL body			FR body			AL Body			AR Body			
		X1	Y1	Z1	X2	Y2	Z2	X3	Y3	Z3	X4	Y4	Z4	X5	Y5	Z5	X6	Y6	Z6	X7	Y7	Z7	X8	Y8	Z8	X9	Y9	Z9	

2626	26.250	-177.68265	42.62191	-221.03539	220.94337	36.05520	-156.61719	-266.90308	-15.53324	414.10852	143.19960	-19.03458	428.81790	20.97221	1182.96289	-532.21863	-42.48584	618.97327	-323.03320	114.44164	618.52789	-302.43298	-155.44308	529.73218	610.77771	-4.39412	520.22345	628.82977	
2627	26.260	-177.92093	42.55129	-221.02411	220.48990	36.15369	-156.67635	-267.48465	-15.09995	413.49478	142.87903	-18.97491	428.77158	20.58636	1182.83704	-532.40021	-42.81947	619.00995	-322.98483	114.17353	618.47784	-302.50510	-155.64397	529.71375	610.80707	-4.76471	520.33856	628.77747	
2628	26.270	-178.01233	42.09996	-220.91492	220.28906	36.21276	-156.63821	-267.50467	-15.35681	413.99405	142.26910	-19.00859	428.67896	20.26861	1182.85413	-532.48022	-43.03752	618.98975	-323.08014	113.94178	618.46033	-302.55386	-155.83856	529.66260	610.77948	-5.23406	520.39014	628.71539	
2629	26.280	-178.62811	42.44644	-220.77678	220.00554	36.27399	-156.60909	-267.89008	-15.29666	413.91879	141.89012	-18.90302	428.72446	20.01126	1182.78809	-532.53906	-43.48231	618.98114	-323.22659	113.85949	618.50592	-302.86002	-156.18201	529.63586	610.72571	-5.39568	520.40802	628.71002	
2630	26.290	-179.06563	42.58120	-220.99765	219.72998	36.27298	-156.62750	-268.29306	-15.21630	413.82324	141.70216	-18.82163	428.76477	19.65856	1182.74548	-532.64447	-43.78122	618.97620	-323.33115	113.45935	618.50903	-302.90399	-156.64600	529.68756	610.64954	-5.44480	520.42761	628.65234	
2631	26.300	-179.20309	42.52330	-221.04103	219.63860	36.38078	-156.53683	-268.58044	-15.25417	413.85092	141.59251	-18.59698	428.75851	19.27327	1182.71399	-532.77942	-43.82186	618.76996	-323.10477	113.17025	618.42828	-302.93530	-157.23842	529.84686	610.49200	-5.69535	520.52344	628.54590	
2632	26.310	-179.52187	42.48058	-221.10484	219.40599	36.50761	-156.37756	-268.86505	-15.29439	413.85263	141.54979	-18.42432	428.78769	18.97830	1182.63025	-532.82880	-44.22470	618.76007	-323.11423	112.95947	618.38831	-302.94400	-157.51981	529.90692	610.39172	-5.91596	520.58032	628.50031	
2633	26.320	-179.73900	42.14346	-221.26944	218.97076	36.61095	-156.16171	-269.15005	-15.29794	413.83658	141.23993	-18.42009	428.77689	18.62749	1182.53113	-532.96179	-44.77782	618.70294	-323.31570	112.67879	618.30829	-302.96237	-157.78621	529.96051	610.27863	-6.13589	520.59302	628.45227	
2634	26.330	-180.52553	42.53038	-221.10689	218.42743	36.50795	-156.18330	-269.56836	-15.19735	413.84351	140.75101	-18.53604	428.70163	18.25016	1182.47034	-533.08899	-45.17928	618.59137	-323.39423	112.25681	618.30414	-302.99051	-157.93478	529.93585	610.25452	-6.53695	520.63440	628.43768	
2635	26.340	-180.86884	42.55375	-221.08815	218.06458	36.39225	-156.25090	-269.89746	-15.14225	413.75137	140.26279	-18.50995	428.69550	17.99799	1182.49292	-533.15210	-45.50240	618.61151	-323.49203	111.78139	618.28632	-303.04578	-158.13260	529.92505	610.18616	-6.99842	520.68170	628.38086	
2636	26.350	-181.15506	42.63149	-221.04373	217.60262	36.18546	-156.43440	-270.18842	-15.12657	413.82471	139.66310	-18.62761	428.68735	17.60916	1182.49414	-533.29041	-45.90951	618.67328	-323.61887	111.22964	618.22198	-302.96573	-158.31995	529.93018	610.11975	-7.49750	520.75323	628.27277	
2637	26.360	-181.35696	42.50274	-221.10310	217.17815	36.09837	-156.60944	-270.66278	-15.04693	413.83633	139.51743	-18.53867	428.70047	17.19587	1182.52209	-533.42456	-46.29558	618.71674	-323.75061	110.92306	618.14130	-302.95230	-159.01534	530.07910	610.10052	-7.92277	520.81036	628.16046	
2638	26.370	-181.60855	42.38246	-220.93852	216.94626	36.05230	-156.64427	-270.94116	-15.06868	413.79663	139.40237	-18.43756	428.71829	16.63924	1182.53210	-533.54852	-46.75979	618.71722	-323.74963	110.56555	618.10016	-302.97037	-159.68263	530.17352	610.04401	-8.32827	520.90051	628.06781	
